{"title":"The Cloth 2012 DVDRip XviD AC3 - TODE","uid":8386857,"size":676867701,"categoryP":"video","categoryS":"movies","magnet":"?xt=urn:btih:e358367d9351112becd7a701a9e229fd3b9cad3d&amp;dn=The+Cloth+2012+DVDRip+XviD+AC3+-+TODE&amp;tr=udp%3A%2F%2Ftracker.openbittorrent.com%3A80&amp;tr=udp%3A%2F%2Fopen.demonii.com%3A1337&amp;tr=udp%3A%2F%2Ftracker.coppersurfer.tk%3A6969&amp;tr=udp%3A%2F%2Fexodus.desync.com%3A6969","seeders":1,"leechers":0,"uploader":"Gh0stNet","files":4,"time":1366307471,"description":"\tPlot: A godless man is recruited by a secret organization who works to combat demonic possessions in order to prepare a new generation in the battle against evil forces\nAction/horror story centered on a secret organization formed by the Catholic Church to counteract the rising number of cases of demonic possessions across the country. The story follows a young godless man who is being recruited into the cloth in order to prepare a new generation with the tools needed to stop the rise of the ultimate evil; Beelzebub\n\n\nDirector:\nJustin Price\n\nWriter:\nJustin Price\n\nStars:\nDanny Trejo, Eric Roberts, Rachele Brooke Smith\n\nGenres:\nAdventure |  Sci-Fi |  Thriller\n\nCountry:\nUSA\n\nLanguage:\nEnglish\n\n\nThanks: PLAYNOW\n\n\nFormat                                   : AVI\nFormat/Info                              : Audio Video Interleave\nFile size                                : 609 MiB\nDuration                                 : 1h 30mn\nOverall bit rate                         : 940 Kbps\nWriting application                      : Lavf54.59.103\nWriting library                          : VirtualDub build 32842/release\n\nVideo\nID                                       : 0\nFormat                                   : MPEG-4 Visual\nFormat profile                           : Simple@L3\nFormat settings, BVOP                    : No\nFormat settings, QPel                    : No\nFormat settings, GMC                     : No warppoints\nFormat settings, Matrix                  : Default (H.263)\nCodec ID                                 : XVID\nCodec ID/Hint                            : XviD\nDuration                                 : 1h 30mn\nBit rate                                 : 801 Kbps\nWidth                                    : 640 pixels\nHeight                                   : 264 pixels\nDisplay aspect ratio                     : 2.40:1\nFrame rate                               : 25.000 fps\nColor space                              : YUV\nChroma subsampling                       : 4:2:0\nBit depth                                : 8 bits\nScan type                                : Progressive\nCompression mode                         : Lossy\nBits/(Pixel*Frame)                       : 0.190\nStream size                              : 519 MiB (85%)\nWriting library                          : XviD 1.3.0.dev55\n\nAudio\nID                                       : 1\nFormat                                   : AC-3\nFormat/Info                              : Audio Coding 3\nMode extension                           : CM (complete main)\nFormat settings, Endianness              : Big\nCodec ID                                 : 2000\nDuration                                 : 1h 30mn\nBit rate mode                            : Constant\nBit rate                                 : 128 Kbps\nChannel(s)                               : 2 channels\nChannel positions                        : Front: L R\nSampling rate                            : 48.0 KHz\nBit depth                                : 16 bits\nCompression mode                         : Lossy\nStream size                              : 83.0 MiB (14%)\nAlignment                                : Aligned on interleaves\nInterleave, duration                     : 32 ms (0.80 video frame)\nInterleave, preload duration             : 512 ms\n\nUploader note:-\n\nSample is included.","torrent":{"xt":"urn:btih:e358367d9351112becd7a701a9e229fd3b9cad3d","amp;dn":"The+Cloth+2012+DVDRip+XviD+AC3+-+TODE","amp;tr":["udp%3A%2F%2Ftracker.openbittorrent.com%3A80","udp%3A%2F%2Fopen.demonii.com%3A1337","udp%3A%2F%2Ftracker.coppersurfer.tk%3A6969","udp%3A%2F%2Fexodus.desync.com%3A6969"],"infoHash":"e358367d9351112becd7a701a9e229fd3b9cad3d","infoHashBuffer":{"type":"Buffer","data":[227,88,54,125,147,81,17,43,236,215,167,1,169,226,41,253,59,156,173,61]},"announce":[],"urlList":[]}}